<svg width="10" height="12" viewBox="0 0 10 12" fill="none" xmlns="http://www.w3.org/2000/svg">
<path d="M1.24878 0.31939C1.60788 -0.106002 2.05907 -0.106002 2.42048 0.316628L0.00801689 2.38006C0.0356405 1.95743 0.166853 1.59557 0.426975 1.3C0.595451 1.10778 0.758128 0.910584 0.92097 0.713191C1.02958 0.581541 1.13826 0.449802 1.24878 0.31939ZM1.24878 0.31939L1.24879 0.319398L1.24878 0.31939ZM0.357292 2.40257C0.317523 3.02881 0.444467 3.63082 0.636693 4.24503L0.637029 4.2461C1.02955 5.51463 1.62826 6.64502 2.35939 7.68702L2.3595 7.68718C3.34415 9.09212 4.5141 10.1965 5.87714 10.9916C6.49237 11.35 7.09563 11.6045 7.73331 11.6463L7.7339 11.6464C7.93812 11.6601 8.11064 11.635 8.26031 11.5707C8.40839 11.5071 8.55402 11.3968 8.69331 11.2094L8.69359 11.209C8.85458 10.9931 9.03646 10.7809 9.20848 10.5802C9.29344 10.481 9.37599 10.3847 9.45243 10.2921C9.59166 10.1228 9.64945 9.9521 9.65 9.79626C9.65054 9.6407 9.59418 9.47263 9.45747 9.3075C9.02095 8.78093 8.58204 8.257 8.14245 7.73227C8.00649 7.57135 7.8935 7.53574 7.82348 7.53574C7.75367 7.53574 7.6414 7.57113 7.50666 7.73178L7.50644 7.73204C7.2322 8.05836 6.96013 8.38209 6.69294 8.71094C6.64204 8.7738 6.54672 8.87628 6.39622 8.9124C6.22851 8.95265 6.0896 8.89012 6.00228 8.83166C5.94007 8.79102 5.8775 8.75409 5.80727 8.71264C5.78755 8.701 5.76722 8.68901 5.74613 8.67648C5.65364 8.62151 5.55071 8.55856 5.45008 8.4835L5.44849 8.48232C4.61456 7.85289 3.92432 7.05004 3.32109 6.1622L3.32096 6.162C3.01784 5.71521 2.74096 5.22649 2.54601 4.66986C2.54599 4.66979 2.54596 4.66972 2.54594 4.66965L2.87627 4.55398C2.83944 4.44901 2.84634 4.37995 2.9177 4.29432L0.357292 2.40257ZM0.357292 2.40257C0.380889 2.04234 0.489741 1.75845 0.689714 1.53123L0.690186 1.5307C0.860354 1.33654 1.03092 1.12988 1.19759 0.927939C1.30569 0.796959 1.41215 0.66797 1.51579 0.545677L1.51622 0.545162C1.65055 0.386042 1.76318 0.350121 1.83436 0.35C1.90576 0.349879 2.01886 0.385637 2.1542 0.543776C2.30148 0.716865 2.44547 0.890865 2.59122 1.06698C2.66482 1.15591 2.73886 1.24538 2.81399 1.33554L0.357292 2.40257Z" stroke="black" stroke-width="0.7"/>
</svg>
